<?xml version="1.0" encoding="utf-8"?>
<!-- Generator: Adobe Illustrator 16.0.0, SVG Export Plug-In . SVG Version: 6.00 Build 0)  -->
<!DOCTYPE svg PUBLIC "-//W3C//DTD SVG 1.1//EN" "http://www.w3.org/Graphics/SVG/1.1/DTD/svg11.dtd">
<svg version="1.1" id="Слой_1" xmlns="http://www.w3.org/2000/svg" xmlns:xlink="http://www.w3.org/1999/xlink" x="0px" y="0px"
	 width="20px" height="20px" viewBox="5 0 20 20" enable-background="new 5 0 20 20" xml:space="preserve">
<polygon points="42.968,5.057 42.32,5.777 46.742,9.5 35.5,9.5 35.5,10.5 46.745,10.5 42.32,14.309 42.968,15.09 48.874,10.074 "/>
<g>
	<rect x="22.738" y="1.5" fill="none" width="16.457" height="17"/>
</g>
<polygon points="-2.563,1.502 -2.563,18.503 -10.563,18.503 -10.563,19.503 -1.563,19.503 -1.563,0.502 -10.563,0.502 
	-10.563,1.502 "/>
<path d="M17.65,11.011L17.671,11h2.577v-1h-1.996l-1.595-3.072l0.261-0.811C16.945,6.118,16.973,6.125,17,6.125
	c1.277,0,2.313-1.035,2.313-2.313S18.277,1.5,17,1.5s-2.313,1.035-2.313,2.313c0,0.897,0.516,1.666,1.262,2.049l-0.297,0.919h-2.931
	l-0.418,0.032l-1.292,4.08l0.953,0.303l1.081-3.414h2.286l-2.536,7.875H10v1h3.292l0.21,0.003l1.33-4.068l3.162,6.077l0.887-0.461
	l-3.61-6.938l-0.016,0.008l0.97-3.01L17.65,11.011z"/>
</svg>
