<?xml version="1.0" encoding="utf-8"?>
<!-- Generator: Adobe Illustrator 16.0.0, SVG Export Plug-In . SVG Version: 6.00 Build 0)  -->
<!DOCTYPE svg PUBLIC "-//W3C//DTD SVG 1.1//EN" "http://www.w3.org/Graphics/SVG/1.1/DTD/svg11.dtd">
<svg version="1.1" id="Layer_1" xmlns="http://www.w3.org/2000/svg" xmlns:xlink="http://www.w3.org/1999/xlink" x="0px" y="0px"
	 width="960px" height="321.006px" viewBox="0 115.401 960 321.006" enable-background="new 0 115.401 960 321.006"
	 xml:space="preserve">
<g>
	<g>
		<path d="M933.796,383.13c-1.977-0.526-6.212-0.796-12.703-0.796h-17.146v53.159h10.685v-20.052h6.965
			c4.831,0,8.523-0.252,11.076-0.764c1.877-0.41,3.719-1.246,5.544-2.52c1.81-1.271,3.308-3.014,4.486-5.242
			c1.183-2.227,1.769-4.964,1.769-8.229c0-4.229-1.021-7.679-3.063-10.356C939.363,385.667,936.826,383.926,933.796,383.13z
			 M932.264,402.965c-0.813,1.189-1.927,2.061-3.342,2.614c-1.425,0.551-4.236,0.837-8.448,0.837h-5.843v-15.089h5.156
			c3.852,0,6.414,0.116,7.688,0.368c1.734,0.311,3.164,1.097,4.295,2.354c1.13,1.256,1.699,2.854,1.699,4.781
			C933.469,400.402,933.068,401.784,932.264,402.965z M816.419,411.739c0,4.202-0.159,7.219-0.469,9.034
			c-0.318,1.816-1.239,3.341-2.78,4.588c-1.54,1.248-3.825,1.868-6.856,1.868c-2.979,0-5.333-0.661-7.059-1.977
			c-1.716-1.322-2.805-3.064-3.267-5.241c-0.26-1.355-0.394-4.32-0.394-8.893v-28.786H784.91v28.351
			c0,5.953,0.354,10.449,1.047,13.498c0.486,2.061,1.481,4.018,2.997,5.895c1.517,1.876,3.575,3.392,6.188,4.57
			c2.612,1.173,6.438,1.759,11.495,1.759c4.187,0,7.578-0.543,10.175-1.614c2.602-1.081,4.671-2.521,6.228-4.339
			c1.55-1.816,2.613-4.034,3.191-6.672c0.577-2.629,0.87-7.144,0.87-13.53v-27.916h-10.685v29.405H816.419z M679.819,381.432
			c-4.313,0-8.114,0.703-11.405,2.102c-2.478,1.039-4.754,2.638-6.84,4.781c-2.076,2.16-3.725,4.588-4.924,7.291
			c-1.615,3.678-2.418,8.225-2.418,13.641c0,8.455,2.318,15.104,6.965,19.928c4.639,4.822,10.895,7.232,18.765,7.232
			c7.771,0,13.975-2.428,18.619-7.276c4.646-4.847,6.968-11.562,6.968-20.144c0-8.649-2.346-15.416-7.017-20.271
			C693.851,383.857,687.613,381.432,679.819,381.432z M690.409,422.607c-2.729,3.08-6.229,4.621-10.482,4.621
			c-4.261,0-7.77-1.558-10.541-4.662c-2.764-3.107-4.146-7.67-4.146-13.689c0-6.111,1.341-10.684,4.035-13.725
			c2.698-3.038,6.247-4.545,10.65-4.545s7.929,1.49,10.592,4.486c2.653,2.998,3.984,7.545,3.984,13.641
			C694.504,414.896,693.14,419.52,690.409,422.607z M568.117,416.495c-1.506-1.625-3.415-3.104-5.718-4.462
			c4.638-0.68,8.129-2.319,10.457-4.915c2.336-2.597,3.509-5.896,3.509-9.88c0-3.147-0.771-5.937-2.313-8.372
			c-1.539-2.445-3.592-4.144-6.153-5.101c-2.562-0.953-6.673-1.433-12.324-1.433h-22.479v53.159h10.675v-22.197h2.169
			c2.453,0,4.245,0.201,5.375,0.604c1.131,0.401,2.202,1.14,3.215,2.211c1.014,1.08,2.889,3.685,5.627,7.82l7.729,11.563h12.768
			l-6.454-10.374C571.645,420.982,569.616,418.111,568.117,416.495z M551.684,404.814h-7.913v-13.487h8.34
			c4.337,0,6.934,0.059,7.795,0.185c1.732,0.285,3.072,0.987,4.027,2.076c0.945,1.105,1.423,2.546,1.423,4.336
			c0,1.602-0.359,2.932-1.079,3.987c-0.722,1.071-1.726,1.815-2.998,2.253C560.006,404.6,556.799,404.814,551.684,404.814z
			 M431.359,415.941h12.231v6.75c-1.614,1.255-3.541,2.326-5.793,3.215c-2.252,0.879-4.496,1.322-6.731,1.322
			c-4.521,0-8.179-1.582-10.968-4.738c-2.788-3.147-4.188-7.887-4.188-14.191c0-5.852,1.373-10.265,4.128-13.236
			c2.755-2.973,6.472-4.455,11.137-4.455c3.082,0,5.643,0.754,7.703,2.262c2.06,1.507,3.457,3.566,4.202,6.178l10.617-1.992
			c-1.063-4.881-3.441-8.707-7.133-11.47c-3.693-2.771-8.817-4.153-15.389-4.153c-5.049,0-9.277,0.879-12.668,2.646
			c-4.446,2.294-7.828,5.592-10.14,9.896c-2.312,4.303-3.466,9.227-3.466,14.762c0,5.1,1.037,9.82,3.105,14.156
			c2.068,4.338,5.158,7.68,9.276,10.016c4.112,2.326,8.935,3.499,14.47,3.499c4.354,0,8.656-0.838,12.901-2.495
			c4.245-1.649,7.484-3.564,9.729-5.743v-21.173h-23.023v8.945H431.359z M1.38,326.622h39.971v-59.437h96.211v-31.723H41.351
			v-25.871h101.486v-31.722H1.38V326.622z M341.504,194c-8.691-6.568-19.232-11.529-31.625-14.886
			c-12.382-3.359-26.298-5.032-41.746-5.032c-15.439,0-29.396,1.673-41.855,5.032c-12.459,3.357-23.073,8.318-31.833,14.886
			c-8.765,6.568-15.514,14.739-20.254,24.519c-4.746,9.783-7.115,21.058-7.115,33.833c0,12.772,2.37,24.053,7.115,33.83
			c4.741,9.78,11.489,17.957,20.254,24.524c8.76,6.571,19.374,11.528,31.833,14.877c12.458,3.368,26.416,5.041,41.855,5.041
			c15.448,0,29.364-1.673,41.746-5.041c12.393-3.349,22.934-8.306,31.625-14.877c8.689-6.567,15.372-14.744,20.033-24.524
			c4.674-9.777,7.01-21.058,7.01-33.83c0-12.776-2.335-24.05-7.01-33.833C356.875,208.739,350.194,200.569,341.504,194z
			 M325.502,268.969c-1.759,5.521-4.88,10.488-9.369,14.887c-4.497,4.403-10.616,7.975-18.368,10.717
			c-7.763,2.746-17.635,4.115-29.632,4.115c-8.045,0-15.12-0.633-21.224-1.896c-6.104-1.261-11.378-2.993-15.833-5.194
			c-4.455-2.199-8.188-4.781-11.213-7.742c-3.013-2.959-5.417-6.153-7.217-9.578c-1.792-3.433-3.063-7.021-3.817-10.775
			c-0.762-3.75-1.139-7.468-1.139-11.149c0-3.608,0.377-7.271,1.139-10.988c0.754-3.718,2.026-7.293,3.817-10.718
			c1.8-3.428,4.204-6.64,7.217-9.636c3.024-2.993,6.758-5.611,11.213-7.85c4.455-2.235,9.729-3.99,15.833-5.25
			c6.104-1.264,13.179-1.895,21.224-1.895c11.998,0,21.869,1.373,29.632,4.114c7.752,2.741,13.872,6.317,18.368,10.718
			c4.488,4.402,7.61,9.364,9.369,14.887c1.758,5.521,2.64,11.059,2.64,16.618C328.142,257.909,327.261,263.452,325.502,268.969z
			 M580.143,326.622l-48.486-58.787c4.389-1.516,8.549-3.43,12.499-5.74c3.953-2.311,7.418-5.141,10.4-8.5
			c2.979-3.357,5.35-7.38,7.106-12.069c1.759-4.692,2.639-10.177,2.639-16.456c0-7.147-1.056-13.623-3.173-19.435
			c-2.127-5.811-5.536-10.771-10.24-14.886c-4.706-4.115-10.811-7.288-18.313-9.528c-7.51-2.235-16.643-3.354-27.419-3.354H404.96
			V326.62h39.97v-54.781h43.631l44.818,54.781h46.764V326.622z M522.771,232.217c-0.753,2.017-2.066,3.663-3.935,4.923
			c-1.867,1.264-4.362,2.185-7.485,2.762c-3.123,0.578-7.024,0.867-11.688,0.867H444.93V208.94h54.732
			c4.663,0,8.564,0.29,11.688,0.867c3.123,0.574,5.618,1.495,7.485,2.759s3.182,2.906,3.935,4.928c0.755,2.017,1.13,4.47,1.13,7.359
			S523.526,230.196,522.771,232.217z M588.976,210.239h62.812v116.383h39.971V210.239h62.913v-32.37H588.976V210.239z
			 M949.512,222.148c-4.413-10.465-10.626-19.273-18.639-26.416c-8.005-7.146-17.6-12.542-28.769-16.183
			c-11.161-3.647-23.46-5.468-36.897-5.468c-14.578,0-27.789,2.001-39.646,6.007c-11.849,4.005-21.963,9.561-30.326,16.67
			c-8.373,7.113-14.837,15.481-19.393,25.118c-4.563,9.632-6.839,20.082-6.839,31.338c0,12.128,2.261,22.991,6.78,32.591
			c4.529,9.596,11.104,17.717,19.719,24.355c8.615,6.64,19.23,11.714,31.832,15.214c12.609,3.499,26.995,5.249,43.153,5.249
			c12.643,0,25.011-0.887,37.115-2.652c12.099-1.768,24.223-4.674,36.362-8.718v-34.751c-3.021,1.807-6.991,3.614-11.905,5.414
			c-4.923,1.809-10.432,3.449-16.544,4.926c-6.104,1.479-12.677,2.672-19.71,3.572c-7.041,0.904-14.228,1.355-21.551,1.355
			c-10.342,0-19.232-0.761-26.658-2.272c-7.436-1.521-13.707-3.647-18.808-6.39c-5.098-2.74-9.135-6.062-12.113-9.959
			c-2.989-3.896-5.125-8.192-6.414-12.886h145.878v-9.959C956.143,244.668,953.932,232.614,949.512,222.148z M810.265,238.819
			c0.721-3.25,2.295-6.782,4.739-10.608s5.869-7.397,10.289-10.716c4.412-3.324,9.897-6.1,16.429-8.34
			c6.539-2.235,14.292-3.352,23.274-3.352c9.553,0,17.523,1.025,23.914,3.085c6.396,2.055,11.563,4.672,15.515,7.845
			c3.951,3.179,6.84,6.731,8.673,10.667c1.835,3.931,2.931,7.74,3.282,11.42L810.265,238.819L810.265,238.819z"/>
	</g>
</g>
<path d="M912.521,143.981l-56.238,20.137l-9.695-18.404l51.817-30.313L912.521,143.981z"/>
</svg>
