<?xml version="1.0" encoding="utf-8"?>
<!-- Generator: Adobe Illustrator 16.0.0, SVG Export Plug-In . SVG Version: 6.00 Build 0)  -->
<!DOCTYPE svg PUBLIC "-//W3C//DTD SVG 1.1//EN" "http://www.w3.org/Graphics/SVG/1.1/DTD/svg11.dtd">
<svg version="1.1" id="Слой_1" xmlns="http://www.w3.org/2000/svg" xmlns:xlink="http://www.w3.org/1999/xlink" x="0px" y="0px"
	 width="20px" height="20px" viewBox="5 0 20 20" enable-background="new 5 0 20 20" xml:space="preserve">
<path fill="none" d="M12.458,9.539v-5.72c-2.647,0.83-4.584,3.28-4.584,6.197c0,3.596,2.925,6.521,6.521,6.521
	s6.521-2.926,6.521-6.521c0-2.917-1.937-5.367-4.583-6.197v5.719H12.458z"/>
<path d="M16.334,2.757v0.987V3.82c2.646,0.83,4.583,3.28,4.583,6.197c0,3.596-2.926,6.521-6.521,6.521s-6.521-2.926-6.521-6.521
	c0-2.917,1.937-5.368,4.584-6.197V3.745V2.757c-3.21,0.857-5.584,3.783-5.584,7.259c0,4.147,3.374,7.521,7.521,7.521
	c4.147,0,7.521-3.374,7.521-7.521C21.917,6.541,19.544,3.615,16.334,2.757z"/>
<path d="M14.896,8.593V1.351h-1v7.242c-0.581,0.207-1,0.755-1,1.407c0,0.828,0.671,1.501,1.5,1.501s1.5-0.673,1.5-1.501
	C15.896,9.348,15.477,8.799,14.896,8.593z"/>
</svg>
