<?xml version="1.0" encoding="utf-8"?>
<!-- Generator: Adobe Illustrator 16.0.0, SVG Export Plug-In . SVG Version: 6.00 Build 0)  -->
<!DOCTYPE svg PUBLIC "-//W3C//DTD SVG 1.1//EN" "http://www.w3.org/Graphics/SVG/1.1/DTD/svg11.dtd">
<svg version="1.1" id="Layer_1" xmlns="http://www.w3.org/2000/svg" xmlns:xlink="http://www.w3.org/1999/xlink" x="0px" y="0px"
	 width="30px" height="30px" viewBox="0 0 30 30" enable-background="new 0 0 30 30" xml:space="preserve">
<path d="M26.395,25.73l-4.838-4.838c1.48-1.731,2.381-3.973,2.381-6.424c0-5.462-4.444-9.906-9.906-9.906
	c-5.462,0-9.906,4.444-9.906,9.906c0,5.462,4.444,9.906,9.906,9.906c2.292,0,4.398-0.79,6.078-2.102l4.871,4.871L26.395,25.73z
	 M6.125,14.469c0-4.359,3.547-7.906,7.906-7.906s7.906,3.547,7.906,7.906s-3.547,7.906-7.906,7.906S6.125,18.828,6.125,14.469z"/>
</svg>
