<?xml version="1.0" encoding="utf-8"?>
<!-- Generator: Adobe Illustrator 16.0.0, SVG Export Plug-In . SVG Version: 6.00 Build 0)  -->
<!DOCTYPE svg PUBLIC "-//W3C//DTD SVG 1.1//EN" "http://www.w3.org/Graphics/SVG/1.1/DTD/svg11.dtd">
<svg version="1.1" id="Layer_1" xmlns="http://www.w3.org/2000/svg" xmlns:xlink="http://www.w3.org/1999/xlink" x="0px" y="0px"
	 width="50px" height="50px" viewBox="0 0 50 50" enable-background="new 0 0 50 50" xml:space="preserve">
<g>
	<path d="M25,49.5C11.491,49.5,0.5,38.51,0.5,25C0.5,11.491,11.491,0.5,25,0.5c13.51,0,24.5,10.991,24.5,24.5
		C49.5,38.51,38.51,49.5,25,49.5z M25,1.5C12.042,1.5,1.5,12.042,1.5,25S12.042,48.5,25,48.5S48.5,37.958,48.5,25S37.958,1.5,25,1.5
		z"/>
</g>
<g>
	<rect fill="none" width="50" height="50"/>
</g>
<g>
	<path d="M25.563,49.697c-6.431,0-13.049-2.642-17.271-6.893l-0.375-0.378l0.401-0.351c1.712-1.498,3.992-2.396,6.003-3.187
		c2.494-0.98,4.651-1.829,5.308-3.477c0.105-1.196,0.097-2.106,0.088-3.156l-0.004-0.682c-0.859-0.734-1.96-2.864-2.262-4.734
		c-0.628-0.218-1.522-0.929-1.792-3.17c-0.13-1.093,0.251-1.877,0.703-2.314c-1.26-5.048-0.951-8.855,0.919-11.32
		c1.535-2.022,4.098-3.081,7.618-3.146c2.366,0,4.085,0.637,4.89,1.799c1.665,0.285,2.92,1.092,3.733,2.401
		c2.043,3.289,0.596,8.767,0.135,10.28c0.447,0.44,0.818,1.219,0.687,2.301c-0.268,2.242-1.163,2.952-1.791,3.169
		c-0.289,1.802-1.312,3.979-2.209,4.736l-0.004,0.677c-0.01,1.051-0.018,1.962,0.088,3.159c0.655,1.647,2.804,2.496,5.288,3.477
		c2.02,0.798,4.309,1.701,6.019,3.221l0.378,0.336l-0.34,0.374C40.49,44.23,32.438,49.697,25.563,49.697z M9.394,42.484
		c4.052,3.844,10.191,6.213,16.168,6.213c6.079,0,13.107-4.457,15.089-6.187c-1.521-1.196-3.442-1.955-5.305-2.69
		c-2.623-1.036-5.1-2.014-5.882-4.119l-0.029-0.129c-0.115-1.281-0.107-2.275-0.098-3.327l0.005-1.229l0.268-0.141
		c0.528-0.276,1.784-2.533,1.994-4.498l0.044-0.411l0.411-0.034c0.491-0.041,1.087-0.688,1.29-2.38
		c0.112-0.924-0.3-1.436-0.534-1.578l-0.341-0.207l0.126-0.378c0.219-0.659,2.082-6.532,0.07-9.77
		c-0.696-1.121-1.761-1.767-3.253-1.974L29.174,9.61l-0.122-0.214c-0.544-0.957-2.055-1.506-4.146-1.506
		c-3.189,0.059-5.49,0.984-6.83,2.75c-1.714,2.259-1.939,5.886-0.667,10.78l0.093,0.36l-0.317,0.193
		c-0.233,0.142-0.645,0.654-0.535,1.579c0.204,1.692,0.799,2.339,1.289,2.38l0.412,0.034l0.044,0.411
		c0.22,2.06,1.565,4.247,2.047,4.498l0.268,0.141l0.005,1.232c0.009,1.051,0.018,2.044-0.098,3.324l-0.029,0.13
		c-0.783,2.104-3.27,3.083-5.902,4.118C12.83,40.551,10.917,41.303,9.394,42.484z"/>
</g>
</svg>
