<?xml version="1.0" encoding="utf-8"?>
<!-- Generator: Adobe Illustrator 16.0.0, SVG Export Plug-In . SVG Version: 6.00 Build 0)  -->
<!DOCTYPE svg PUBLIC "-//W3C//DTD SVG 1.1//EN" "http://www.w3.org/Graphics/SVG/1.1/DTD/svg11.dtd">
<svg version="1.1" id="Layer_1" xmlns="http://www.w3.org/2000/svg" xmlns:xlink="http://www.w3.org/1999/xlink" x="0px" y="0px"
	 width="40px" height="40px" viewBox="0 0 40 40" enable-background="new 0 0 40 40" xml:space="preserve">
<g>
	<g>
		<g>
			<path d="M5.858,34.142c-0.389-0.389-0.389-1.025,0-1.414l26.87-26.87c0.389-0.389,1.025-0.389,1.414,0h0.001
				c0.389,0.389,0.389,1.025,0,1.414L7.272,34.143C6.883,34.531,6.247,34.531,5.858,34.142L5.858,34.142z"/>
		</g>
	</g>
</g>
<g>
	<g>
		<g>
			<path d="M34.142,34.143c-0.389,0.389-1.025,0.389-1.414,0L5.858,7.272c-0.389-0.389-0.389-1.025,0-1.414s1.025-0.389,1.414,0
				l26.871,26.87C34.531,33.116,34.531,33.753,34.142,34.143L34.142,34.143z"/>
		</g>
	</g>
</g>
</svg>
