<?xml version="1.0" encoding="utf-8"?>
<!-- Generator: Adobe Illustrator 16.0.0, SVG Export Plug-In . SVG Version: 6.00 Build 0)  -->
<!DOCTYPE svg PUBLIC "-//W3C//DTD SVG 1.1//EN" "http://www.w3.org/Graphics/SVG/1.1/DTD/svg11.dtd">
<svg version="1.1" id="Layer_1" xmlns="http://www.w3.org/2000/svg" xmlns:xlink="http://www.w3.org/1999/xlink" x="0px" y="0px"
	 width="40px" height="40px" viewBox="0 0 40 40" enable-background="new 0 0 40 40" xml:space="preserve">
<g>
	<g>
		<g>
			<path d="M40,8c0,0.55-0.45,1-1,1H1C0.45,9,0,8.55,0,8l0,0c0-0.55,0.45-1,1-1h38C39.55,7,40,7.45,40,8L40,8z"/>
		</g>
	</g>
</g>
<g>
	<g>
		<g>
			<path d="M40,20c0,0.55-0.45,1-1,1H1c-0.55,0-1-0.45-1-1l0,0c0-0.55,0.45-1,1-1h38C39.55,19,40,19.45,40,20L40,20z"/>
		</g>
	</g>
</g>
<g>
	<g>
		<g>
			<path d="M40,32c0,0.55-0.45,1-1,1H1c-0.55,0-1-0.45-1-1l0,0c0-0.55,0.45-1,1-1h38C39.55,31,40,31.45,40,32L40,32z"/>
		</g>
	</g>
</g>
</svg>
